<?xml version="1.0" encoding="utf-8"?>
<svg viewBox="394.5050964355469 306.4173583984375 653.7998046875 285.10003662109375" width="653.7998046875" height="285.10003662109375" xmlns="http://www.w3.org/2000/svg"><g transform="matrix(1, 0, 0, 1, -7.595036029815901, -337.9826354980469)">
	<path class="st1" d="M1042.9,841c7.2,0,13,5.8,13,13c0,7.2-5.8,13-13,13h-28.5v-26H1042.9z" style="fill: rgb(128, 130, 133);"/>
	<path d="M 1028.099976 833 H 1046.299976 V 873.5 H 1028.099976 V 833 Z" class="st6" style="fill: rgb(167, 169, 172);"/>
	<path class="st8" d="M493.7,777.4c-19.5,0-47.5,6.4-45.3,17.9c2.2,11.5,25.2,8.9,25.2,8.9L493.7,777.4z" style="fill: rgb(247, 148, 30);"/>
	<path class="st0" d="M487.9,879.6c24,0,49.6,17.8,91.2,17.8c41.6,0,58.1-17.8,86.6-17.8s180,0,180,0c21.4,0,56.3,17.8,83.2,17.8&#10;&#9;&#9;c27,0,63.8-24.8,80.3-24.8c0-53.2-10.7-120.8-116.3-120.8s-313.7-4.4-313.7-4.4S487.9,789.1,487.9,879.6z" style="fill: rgb(88, 89, 91);"/>
	<g>
		<path d="M 990.200001 866.799988 A 62.700001 62.700001 0 0 1 927.5 929.499989 A 62.700001 62.700001 0 0 1 864.799999 866.799988 A 62.700001 62.700001 0 0 1 927.5 804.099987 A 62.700001 62.700001 0 0 1 990.200001 866.799988 Z"/>
		<path d="M 963.599998 866.799988 A 36.099998 36.099998 0 0 1 927.5 902.899986 A 36.099998 36.099998 0 0 1 891.400002 866.799988 A 36.099998 36.099998 0 0 1 927.5 830.699989 A 36.099998 36.099998 0 0 1 963.599998 866.799988 Z" class="st2" style="fill: rgb(255, 255, 255);"/>
		<path d="M 952.200001 866.799988 A 24.700001 24.700001 0 0 1 927.5 891.499989 A 24.700001 24.700001 0 0 1 902.799999 866.799988 A 24.700001 24.700001 0 0 1 927.5 842.099987 A 24.700001 24.700001 0 0 1 952.200001 866.799988 Z" class="st8" style="fill: rgb(247, 148, 30);"/>
	</g>
	<g>
		<path d="M 640.900013 866.799988 A 62.700001 62.700001 0 0 1 578.200012 929.499989 A 62.700001 62.700001 0 0 1 515.500011 866.799988 A 62.700001 62.700001 0 0 1 578.200012 804.099987 A 62.700001 62.700001 0 0 1 640.900013 866.799988 Z"/>
		<path d="M 614.300011 866.799988 A 36.099998 36.099998 0 0 1 578.200012 902.899986 A 36.099998 36.099998 0 0 1 542.100014 866.799988 A 36.099998 36.099998 0 0 1 578.200012 830.699989 A 36.099998 36.099998 0 0 1 614.300011 866.799988 Z" class="st2" style="fill: rgb(255, 255, 255);"/>
		<path d="M 602.900013 866.799988 A 24.700001 24.700001 0 0 1 578.200012 891.499989 A 24.700001 24.700001 0 0 1 553.500011 866.799988 A 24.700001 24.700001 0 0 1 578.200012 842.099987 A 24.700001 24.700001 0 0 1 602.900013 866.799988 Z" class="st8" style="fill: rgb(247, 148, 30);"/>
	</g>
	<path class="st1" d="M415.1,853.8c-7.2,0-13,5.8-13,13c0,7.2,5.8,13,13,13h28.5v-26H415.1z" style="fill: rgb(128, 130, 133);"/>
	<path class="st8" d="M694.6,644.4c45.9,0,77.8,8.9,98.3,24.1c28.1,20.9,44.6,63.5,44.6,63.5s27.2-3.8,62.2-3.8&#10;&#9;&#9;c62.7,0,119.7,47,119.7,125.2H999c0,0-17.2-71.3-70.7-71.3c-53.5,0-75.2,39.4-75.2,90.7H655.8c0-47.4-13.4-86.5-61.1-86.5&#10;&#9;&#9;c-47.8,0-92.3,22.3-92.3,74h-34.4C467.9,772.4,561.5,644.4,694.6,644.4z" style="fill: rgb(247, 148, 30);"/>
	<path class="st9" d="M892.8,776.7c-71.3,1.5-94.4,72.7-137.9,76.6c-43.5,3.8-64.1-0.6-77.6-35.9c-13.5-35.3-37.9-48.5-87.5-40.7&#10;&#9;&#9;l-1.2,9.6c2-0.1,4.1-0.1,6.1-0.1c47.8,0,61.1,39.1,61.1,86.5h197.4c0-47.7,18.7-85.1,64.3-90.1&#10;&#9;&#9;C910.5,778.6,902.2,776.5,892.8,776.7z" style="fill: rgb(234, 140, 28);"/>
	<path class="st10" d="M840.3,888.3c11.3,0,16.7-4.3,16.7-15.7c0-21.4,10.2-80.6,66.9-80.6c70.3,0,75.4,87.6,84.9,87.6&#10;&#9;&#9;c9.6,0,15.1-16.9,15.1-29.5c0-55-42.4-87.3-104.4-87.3c-70,0-89.8,59.6-89.8,104.4h-158c0-58.6-26.5-108.8-88-108.8&#10;&#9;&#9;c-119.5,0-149.5,85.7-149.5,104.7c0,16.5,6.7,21,19.2,21c12.5,0,32.8,0,42.8,0s13-8,13-21.5c0-37.5,31-64.5,72-64.5&#10;&#9;&#9;c45,0,67.5,30.5,67.5,80.5c0,8,2,9.6,15,9.6S825,888.3,840.3,888.3z" style="fill: rgb(214, 129, 25);"/>
	<path class="st11" d="M709.9,665.8c-62.7,0-118,29-125.8,65.3l123.6-0.2L709.9,665.8z" style="fill: rgb(171, 225, 250);"/>
	<path class="st11" d="M722.9,666.5c37.9,0,82.1,32.3,89,64.6l-90.6-0.2L722.9,666.5z" style="fill: rgb(171, 225, 250);"/>
	<path d="M 411.700012 845.900024 H 429.900013 V 886.400024 H 411.700012 V 845.900024 Z" class="st6" style="fill: rgb(167, 169, 172);"/>
	<path class="st12" d="M446.1,828c24.6-3.3,70.8-55,123.5-55c56.7,0,77.3,25.6,99.7,65.7c-7.6-45.5-34.5-80.2-85.7-80.2&#10;&#9;&#9;C503.6,758.5,463.7,796.9,446.1,828z" style="opacity: 0.1; fill: rgb(255, 255, 255);"/>
	<path class="st12" d="M919.4,762.8c-59.2,0-82.5,42.6-88.3,82.9c19.5-50.8,44.4-72.7,111.2-68.3c28.6,1.9,55.5,46,75.9,40.5&#10;&#9;&#9;C1004.8,782.7,968.1,762.8,919.4,762.8z" style="opacity: 0.1; fill: rgb(255, 255, 255);"/>
	<path class="st7" d="M1022.8,811.5c5.7,14.6,1.9,29.7-5.6,32.7c-4.7,1.8-12.6-8.7-18.4-23.2c-5.7-14.6-7.1-27.7-2.4-29.5&#10;&#9;&#9;C1003.9,788.4,1017,796.9,1022.8,811.5z" style="fill: rgb(209, 211, 212);"/>
</g></svg>